<svg viewBox="0 0 200 200" xmlns="http://www.w3.org/2000/svg" role="img" aria-label="Silhouette hélicoptère Tigre">
  <g fill="currentColor">
    <!-- main rotor -->
    <rect x="22" y="52" width="156" height="4" rx="2"/>
    <circle cx="100" cy="54" r="6"/>
    <!-- narrow tandem fuselage + stub wings (armament) -->
    <path d="M92 60c-10 4-15 16-15 34l-2 6-16 4 1 7 16-3 1 10-6 0-2 20 6 0 4-18 3 24 6 0 3-30 28-8-2-8-26 6c-1-14-5-24-12-30l24-6-2-8-24 6c-2-4-5-7-8-8z"/>
    <!-- tail rotor -->
    <rect x="150" y="78" width="4" height="30" rx="2"/>
  </g>
</svg>
